<svg width="306" height="297" viewBox="0 0 306 297" fill="none" xmlns="http://www.w3.org/2000/svg">
<g clip-path="url(#clip0_23_21)">
<g filter="url(#filter0_g_23_21)">
<path d="M51.4071 278.795L51.7841 279.133L399.5 281C408.5 281 432.385 279.133 454.044 279.133C475.5 279.133 473.044 237.799 469.044 218.133C450.784 158.483 400 133.333 359 111C316 91.9999 134.284 82.0684 115.284 87.0684C100.084 91.0684 45.544 118.935 29.7842 135.483C-33.9625 202.417 19.6893 250.418 51.4071 278.795Z" fill="url(#paint0_linear_23_21)"/>
<path d="M51.4071 278.795L51.7841 279.133L399.5 281C408.5 281 432.385 279.133 454.044 279.133C475.5 279.133 473.044 237.799 469.044 218.133C450.784 158.483 400 133.333 359 111C316 91.9999 134.284 82.0684 115.284 87.0684C100.084 91.0684 45.544 118.935 29.7842 135.483C-33.9625 202.417 19.6893 250.418 51.4071 278.795Z" stroke="url(#paint1_linear_23_21)"/>
</g>
<path d="M80.2054 110.501L85.2054 122.001V197.501L101.205 210.001L93.7054 231.501C95.0387 233.001 98.4054 236.201 101.205 237.001C104.005 237.801 107.039 249.335 108.205 255.001L120.205 252.001C131.705 242.501 162.705 245.001 171.705 245.501C178.905 245.901 211.039 254.335 226.205 258.501C249.372 257.835 296.005 255.601 297.205 252.001C298.405 248.401 292.372 236.835 289.205 231.501L252.205 194.501L246.205 118.001L229.705 98.0015L220.205 78.0015C213.039 52.3348 198.205 1.00146 196.205 1.00146C194.205 1.00146 168.705 44.6681 156.205 66.5015L133.705 81.5015C110.505 55.5015 79.7054 43.6681 67.2054 41.0015C61.6054 56.6015 76.872 80.1681 85.2054 90.0015L80.2054 110.501Z" fill="#D9D9D9"/>
<path d="M80.2054 110.501L85.2054 122.001V197.501L101.205 210.001L93.7054 231.501C95.0387 233.001 98.4054 236.201 101.205 237.001C104.005 237.801 107.039 249.335 108.205 255.001L120.205 252.001C131.705 242.501 162.705 245.001 171.705 245.501C178.905 245.901 211.039 254.335 226.205 258.501C249.372 257.835 296.005 255.601 297.205 252.001C298.405 248.401 292.372 236.835 289.205 231.501L252.205 194.501L246.205 118.001L229.705 98.0015L220.205 78.0015C213.039 52.3348 198.205 1.00146 196.205 1.00146C194.205 1.00146 168.705 44.6681 156.205 66.5015L133.705 81.5015C110.505 55.5015 79.7054 43.6681 67.2054 41.0015C61.6054 56.6015 76.872 80.1681 85.2054 90.0015L80.2054 110.501Z" fill="url(#paint2_linear_23_21)"/>
<path d="M80.2054 110.501L85.2054 122.001V197.501L101.205 210.001L93.7054 231.501C95.0387 233.001 98.4054 236.201 101.205 237.001C104.005 237.801 107.039 249.335 108.205 255.001L120.205 252.001C131.705 242.501 162.705 245.001 171.705 245.501C178.905 245.901 211.039 254.335 226.205 258.501C249.372 257.835 296.005 255.601 297.205 252.001C298.405 248.401 292.372 236.835 289.205 231.501L252.205 194.501L246.205 118.001L229.705 98.0015L220.205 78.0015C213.039 52.3348 198.205 1.00146 196.205 1.00146C194.205 1.00146 168.705 44.6681 156.205 66.5015L133.705 81.5015C110.505 55.5015 79.7054 43.6681 67.2054 41.0015C61.6054 56.6015 76.872 80.1681 85.2054 90.0015L80.2054 110.501Z" stroke="#E38C3C"/>
<path d="M75.9999 50.0016C82.7999 52.8016 112.167 71.1667 123 80L110 91.5016L94.4999 97.5C86.9999 84.5 69.1999 47.2016 75.9999 50.0016Z" fill="white"/>
<path d="M33.9999 263C53.4405 286.761 49.9999 280.628 108.068 280.628L240.785 282C242.952 280.667 248.785 273.028 240.785 258.628C240.785 258.628 238.5 250.5 221 247.628C206.141 245.19 177.5 242.167 175 239.5C171 233 163.401 222.79 156 219.5C142.5 213.5 91.9999 210.5 86.4999 211C-14.5001 220.182 2.49957 224.5 33.9999 263Z" fill="url(#paint3_linear_23_21)"/>
<path d="M162 149C173.274 148.576 202.293 155.771 218 171.5" stroke="black" stroke-width="4" stroke-linecap="round"/>
<path d="M162 153.5C164.5 152 179.5 153.5 186 155L162 148.5C161.167 150.667 160 154.7 162 153.5Z" fill="black" stroke="black"/>
<g filter="url(#filter1_g_23_21)">
<path d="M291.19 381.647C285.669 348.656 284.785 307.903 309.759 307.903C330.533 307.903 331.172 303.467 338.866 298.977C357.157 288.301 345.608 270.159 343.885 259H421.565C422.544 261.692 421.565 271.687 421.565 290.406C421.565 314.634 391.953 331.967 387.546 331.967C383.139 331.967 370.803 333.231 363.457 343.999C358.126 351.813 356.77 370.069 351.049 383.728C346.394 394.843 339.697 395.441 333.848 394.843H316.283C299.905 394.843 292.748 390.962 291.19 381.647Z" fill="#E08A3C"/>
</g>
<rect x="32" y="250" width="443" height="14" rx="5" fill="white"/>
<path d="M239.533 257.767C234.382 255.206 229.868 253.21 225.991 251.645C223.779 250.753 224.487 247.251 226.865 247.444L257.629 249.93C258.184 249.974 258.696 250.249 259.04 250.687L261.587 253.929C262.594 255.211 261.727 257.095 260.098 257.163L240.516 257.979C240.178 257.993 239.836 257.918 239.533 257.767Z" fill="#D28238"/>
<rect x="39" y="264" width="433" height="14" fill="#D6D6D6"/>
<rect x="32" y="278" width="443" height="14" rx="5" fill="white"/>
<path d="M99.7097 213.904C101.999 210.994 92.0868 213.818 105.606 241.884C107.12 245.026 107.635 248.108 108.554 249.878C110.324 262.369 111.503 247.88 170.469 245.881L188.749 246.381L209.386 249.878L238 259H262.456C265.011 257.668 266.269 258.846 266.331 259C266.331 259 273.638 241.37 253 238.5C235.477 236.063 202.251 228.114 193 232C188.283 225.505 179.197 217.191 170.469 213.904C154.548 207.908 98.5303 215.403 99.7097 213.904Z" fill="url(#paint4_linear_23_21)"/>
<g filter="url(#filter2_dg_23_21)">
<path d="M80.2054 110.501L85.2054 122.001V197.501L101.205 210.001L93.7054 231.501C95.0387 233.001 98.4054 236.201 101.205 237.001C104.005 237.801 107.039 249.335 108.205 255.001L120.205 252.001C131.705 242.501 162.705 245.001 171.705 245.501C178.905 245.901 211.039 254.335 226.205 258.501C249.372 257.835 296.005 255.601 297.205 252.001C298.405 248.401 292.372 236.835 289.205 231.501L252.205 194.501L246.205 118.001L229.705 98.0015L220.205 78.0015C213.039 52.3348 198.205 1.00146 196.205 1.00146C194.205 1.00146 168.705 44.6681 156.205 66.5015L133.705 81.5015C110.505 55.5015 79.7054 43.6681 67.2054 41.0015C61.6054 56.6015 76.872 80.1681 85.2054 90.0015L80.2054 110.501Z" stroke="#DD893B" shape-rendering="crispEdges"/>
</g>
<path d="M219.5 71.5015C221 71.5015 185.5 72.5002 155 67.5C167.667 45.6667 194.222 -0.19692 196 0.00063618C200.5 0.500662 218.382 71.5015 219.5 71.5015Z" fill="black"/>
<path d="M289.139 231.63L270 212L266.561 208.332C264.62 206.262 261.201 206.815 260.011 209.392L251.221 228.437C250.761 229.435 250.731 230.578 251.139 231.599L260.409 254.772C261.058 256.395 262.686 257.409 264.429 257.275L274.5 256.5C282.333 256 298 254.2 298 251C298 247.893 292.657 237.62 289.754 232.449C289.585 232.15 289.379 231.876 289.139 231.63Z" fill="black" stroke="black"/>
</g>
<defs>
<filter id="filter0_g_23_21" x="-4.5" y="81.2837" width="480.72" height="204.216" filterUnits="userSpaceOnUse" color-interpolation-filters="sRGB">
<feFlood flood-opacity="0" result="BackgroundImageFix"/>
<feBlend mode="normal" in="SourceGraphic" in2="BackgroundImageFix" result="shape"/>
<feTurbulence type="fractalNoise" baseFrequency="0.25 0.25" numOctaves="3" seed="4216" />
<feDisplacementMap in="shape" scale="8" xChannelSelector="R" yChannelSelector="G" result="displacedImage" width="100%" height="100%" />
<feMerge result="effect1_texture_23_21">
<feMergeNode in="displacedImage"/>
</feMerge>
</filter>
<filter id="filter1_g_23_21" x="284" y="255" width="142" height="144" filterUnits="userSpaceOnUse" color-interpolation-filters="sRGB">
<feFlood flood-opacity="0" result="BackgroundImageFix"/>
<feBlend mode="normal" in="SourceGraphic" in2="BackgroundImageFix" result="shape"/>
<feTurbulence type="fractalNoise" baseFrequency="0.25 0.25" numOctaves="3" seed="8211" />
<feDisplacementMap in="shape" scale="8" xChannelSelector="R" yChannelSelector="G" result="displacedImage" width="100%" height="100%" />
<feMerge result="effect1_texture_23_21">
<feMergeNode in="displacedImage"/>
</feMerge>
</filter>
<filter id="filter2_dg_23_21" x="61.5" y="-3.49854" width="240.361" height="270.502" filterUnits="userSpaceOnUse" color-interpolation-filters="sRGB">
<feFlood flood-opacity="0" result="BackgroundImageFix"/>
<feColorMatrix in="SourceAlpha" type="matrix" values="0 0 0 0 0 0 0 0 0 0 0 0 0 0 0 0 0 0 127 0" result="hardAlpha"/>
<feOffset dy="4"/>
<feGaussianBlur stdDeviation="2"/>
<feComposite in2="hardAlpha" operator="out"/>
<feColorMatrix type="matrix" values="0 0 0 0 0 0 0 0 0 0 0 0 0 0 0 0 0 0 0.25 0"/>
<feBlend mode="normal" in2="BackgroundImageFix" result="effect1_dropShadow_23_21"/>
<feBlend mode="normal" in="SourceGraphic" in2="effect1_dropShadow_23_21" result="shape"/>
<feTurbulence type="fractalNoise" baseFrequency="0.25 0.25" numOctaves="3" seed="3742" />
<feDisplacementMap in="shape" scale="8" xChannelSelector="R" yChannelSelector="G" result="displacedImage" width="100%" height="100%" />
<feMerge result="effect2_texture_23_21">
<feMergeNode in="displacedImage"/>
</feMerge>
</filter>
<linearGradient id="paint0_linear_23_21" x1="235.878" y1="85.7837" x2="15.9999" y2="464" gradientUnits="userSpaceOnUse">
<stop stop-color="#E58D3D"/>
<stop offset="1" stop-color="#A4662D"/>
</linearGradient>
<linearGradient id="paint1_linear_23_21" x1="235.878" y1="85.7837" x2="11.9999" y2="357" gradientUnits="userSpaceOnUse">
<stop stop-color="#DB873A"/>
</linearGradient>
<linearGradient id="paint2_linear_23_21" x1="268" y1="96" x2="-26" y2="297" gradientUnits="userSpaceOnUse">
<stop stop-color="#FF9D42"/>
<stop offset="1" stop-color="#B06D2F"/>
</linearGradient>
<linearGradient id="paint3_linear_23_21" x1="134.124" y1="210.946" x2="-8.00012" y2="419" gradientUnits="userSpaceOnUse">
<stop stop-color="white"/>
<stop offset="1" stop-color="#999999"/>
</linearGradient>
<linearGradient id="paint4_linear_23_21" x1="140.542" y1="211.352" x2="8.3382" y2="439.751" gradientUnits="userSpaceOnUse">
<stop stop-color="white"/>
<stop offset="1" stop-color="#999999"/>
</linearGradient>
<clipPath id="clip0_23_21">
<rect width="306" height="297" fill="white"/>
</clipPath>
</defs>
</svg>
