<svg width="481" height="403" viewBox="0 0 481 403" fill="none" xmlns="http://www.w3.org/2000/svg">
<g filter="url(#filter0_g_21_1001)">
<path d="M55.9071 282.294L56.2841 282.631L404 284.498C413 284.498 436.885 282.631 458.544 282.631C480 282.631 477.544 241.298 473.544 221.631C455.284 161.982 404.5 136.832 363.5 114.498C320.5 95.4985 138.784 85.5669 119.784 90.5669C104.584 94.5669 50.044 122.434 34.2842 138.982C-29.4625 205.916 24.1893 253.917 55.9071 282.294Z" fill="url(#paint0_linear_21_1001)"/>
<path d="M55.9071 282.294L56.2841 282.631L404 284.498C413 284.498 436.885 282.631 458.544 282.631C480 282.631 477.544 241.298 473.544 221.631C455.284 161.982 404.5 136.832 363.5 114.498C320.5 95.4985 138.784 85.5669 119.784 90.5669C104.584 94.5669 50.044 122.434 34.2842 138.982C-29.4625 205.916 24.1893 253.917 55.9071 282.294Z" stroke="url(#paint1_linear_21_1001)"/>
</g>
<path d="M84.7054 114L89.7054 125.5V201L105.705 213.5L98.2054 235C99.5387 236.5 102.905 239.7 105.705 240.5C108.505 241.3 111.539 252.833 112.705 258.5L124.705 255.5C136.205 246 167.205 248.5 176.205 249C183.405 249.4 215.539 257.833 230.705 262C253.872 261.333 300.505 259.1 301.705 255.5C302.905 251.9 296.872 240.333 293.705 235L256.705 198L250.705 121.5L234.205 101.5L224.705 81.5C217.539 55.8333 202.705 4.5 200.705 4.5C198.705 4.5 173.205 48.1667 160.705 70L138.205 85C115.005 59 84.2054 47.1667 71.7054 44.5C66.1054 60.1 81.372 83.6667 89.7054 93.5L84.7054 114Z" fill="#D9D9D9"/>
<path d="M84.7054 114L89.7054 125.5V201L105.705 213.5L98.2054 235C99.5387 236.5 102.905 239.7 105.705 240.5C108.505 241.3 111.539 252.833 112.705 258.5L124.705 255.5C136.205 246 167.205 248.5 176.205 249C183.405 249.4 215.539 257.833 230.705 262C253.872 261.333 300.505 259.1 301.705 255.5C302.905 251.9 296.872 240.333 293.705 235L256.705 198L250.705 121.5L234.205 101.5L224.705 81.5C217.539 55.8333 202.705 4.5 200.705 4.5C198.705 4.5 173.205 48.1667 160.705 70L138.205 85C115.005 59 84.2054 47.1667 71.7054 44.5C66.1054 60.1 81.372 83.6667 89.7054 93.5L84.7054 114Z" fill="url(#paint2_linear_21_1001)"/>
<path d="M84.7054 114L89.7054 125.5V201L105.705 213.5L98.2054 235C99.5387 236.5 102.905 239.7 105.705 240.5C108.505 241.3 111.539 252.833 112.705 258.5L124.705 255.5C136.205 246 167.205 248.5 176.205 249C183.405 249.4 215.539 257.833 230.705 262C253.872 261.333 300.505 259.1 301.705 255.5C302.905 251.9 296.872 240.333 293.705 235L256.705 198L250.705 121.5L234.205 101.5L224.705 81.5C217.539 55.8333 202.705 4.5 200.705 4.5C198.705 4.5 173.205 48.1667 160.705 70L138.205 85C115.005 59 84.2054 47.1667 71.7054 44.5C66.1054 60.1 81.372 83.6667 89.7054 93.5L84.7054 114Z" stroke="#E38C3C"/>
<path d="M80.5 53.5C87.3 56.3 116.667 74.6651 127.5 83.4984L114.5 95L99 100.998C91.5 87.9985 73.7 50.7 80.5 53.5Z" fill="white"/>
<path d="M38.5 266.499C57.9406 290.259 54.5 284.127 112.568 284.127L245.285 285.499C247.452 284.165 253.285 276.527 245.285 262.127C245.285 262.127 243 253.998 225.5 251.127C210.642 248.688 182 245.665 179.5 242.998C175.5 236.498 167.901 226.288 160.5 222.998C147 216.998 96.5 213.998 91 214.498C-10 223.68 6.99969 227.999 38.5 266.499Z" fill="url(#paint3_linear_21_1001)"/>
<path d="M166.5 152.498C177.774 152.074 206.793 159.27 222.5 174.998" stroke="black" stroke-width="4" stroke-linecap="round"/>
<path d="M166.5 156.998C169 155.498 184 156.998 190.5 158.498L166.5 151.998C165.667 154.165 164.5 158.198 166.5 156.998Z" fill="black" stroke="black"/>
<g filter="url(#filter1_g_21_1001)">
<path d="M295.69 385.145C290.169 352.155 289.285 311.402 314.259 311.402C335.033 311.402 335.672 306.966 343.366 302.475C361.657 291.799 350.108 273.657 348.385 262.498H426.065C427.044 265.19 426.065 275.185 426.065 293.905C426.065 318.132 396.453 335.465 392.046 335.465C387.639 335.465 375.303 336.729 367.957 347.497C362.626 355.311 361.27 373.568 355.549 387.226C350.894 398.341 344.197 398.939 338.348 398.341H320.783C304.405 398.341 297.248 394.46 295.69 385.145Z" fill="#E08A3C"/>
</g>
<rect x="36.5" y="253.498" width="443" height="14" rx="5" fill="white"/>
<path d="M244.033 261.266C238.882 258.705 234.368 256.708 230.491 255.144C228.279 254.251 228.987 250.75 231.365 250.942L262.129 253.428C262.684 253.473 263.196 253.748 263.54 254.186L266.087 257.427C267.094 258.709 266.227 260.593 264.598 260.661L245.016 261.477C244.678 261.491 244.336 261.416 244.033 261.266Z" fill="#D28238"/>
<rect x="43.5" y="267.498" width="433" height="14" fill="#D6D6D6"/>
<rect x="36.5" y="281.498" width="443" height="14" rx="5" fill="white"/>
<path d="M104.21 217.402C106.499 214.492 96.5868 217.316 110.106 245.382C111.62 248.525 112.135 251.606 113.054 253.377C114.824 265.868 116.003 251.378 174.969 249.38L193.249 249.879L213.886 253.377L242.5 262.498H266.956C269.511 261.166 270.769 262.344 270.831 262.498C270.831 262.498 278.138 244.868 257.5 241.998C239.977 239.562 206.751 231.613 197.5 235.498C192.783 229.003 183.697 220.69 174.969 217.402C159.048 211.407 103.03 218.901 104.21 217.402Z" fill="url(#paint4_linear_21_1001)"/>
<g filter="url(#filter2_dg_21_1001)">
<path d="M84.7054 114L89.7054 125.5V201L105.705 213.5L98.2054 235C99.5387 236.5 102.905 239.7 105.705 240.5C108.505 241.3 111.539 252.833 112.705 258.5L124.705 255.5C136.205 246 167.205 248.5 176.205 249C183.405 249.4 215.539 257.833 230.705 262C253.872 261.333 300.505 259.1 301.705 255.5C302.905 251.9 296.872 240.333 293.705 235L256.705 198L250.705 121.5L234.205 101.5L224.705 81.5C217.539 55.8333 202.705 4.5 200.705 4.5C198.705 4.5 173.205 48.1667 160.705 70L138.205 85C115.005 59 84.2054 47.1667 71.7054 44.5C66.1054 60.1 81.372 83.6667 89.7054 93.5L84.7054 114Z" stroke="#DD893B" shape-rendering="crispEdges"/>
</g>
<path d="M224 74.9999C225.5 74.9999 190 75.9987 159.5 70.9985C172.167 49.1651 198.722 3.30155 200.5 3.49911C205 3.99914 222.882 74.9999 224 74.9999Z" fill="black"/>
<path d="M293.639 235.128L274.5 215.498L271.061 211.831C269.12 209.76 265.701 210.314 264.511 212.89L255.721 231.935C255.261 232.933 255.231 234.077 255.639 235.097L264.909 258.27C265.558 259.894 267.186 260.907 268.929 260.773L279 259.998C286.833 259.498 302.5 257.698 302.5 254.498C302.5 251.391 297.157 241.119 294.254 235.948C294.085 235.649 293.879 235.374 293.639 235.128Z" fill="black" stroke="black"/>
<defs>
<filter id="filter0_g_21_1001" x="0" y="84.7822" width="480.72" height="204.216" filterUnits="userSpaceOnUse" color-interpolation-filters="sRGB">
<feFlood flood-opacity="0" result="BackgroundImageFix"/>
<feBlend mode="normal" in="SourceGraphic" in2="BackgroundImageFix" result="shape"/>
<feTurbulence type="fractalNoise" baseFrequency="0.25 0.25" numOctaves="3" seed="4216" />
<feDisplacementMap in="shape" scale="8" xChannelSelector="R" yChannelSelector="G" result="displacedImage" width="100%" height="100%" />
<feMerge result="effect1_texture_21_1001">
<feMergeNode in="displacedImage"/>
</feMerge>
</filter>
<filter id="filter1_g_21_1001" x="288.5" y="258.498" width="142" height="144" filterUnits="userSpaceOnUse" color-interpolation-filters="sRGB">
<feFlood flood-opacity="0" result="BackgroundImageFix"/>
<feBlend mode="normal" in="SourceGraphic" in2="BackgroundImageFix" result="shape"/>
<feTurbulence type="fractalNoise" baseFrequency="0.25 0.25" numOctaves="3" seed="8211" />
<feDisplacementMap in="shape" scale="8" xChannelSelector="R" yChannelSelector="G" result="displacedImage" width="100%" height="100%" />
<feMerge result="effect1_texture_21_1001">
<feMergeNode in="displacedImage"/>
</feMerge>
</filter>
<filter id="filter2_dg_21_1001" x="66" y="0" width="240.361" height="270.502" filterUnits="userSpaceOnUse" color-interpolation-filters="sRGB">
<feFlood flood-opacity="0" result="BackgroundImageFix"/>
<feColorMatrix in="SourceAlpha" type="matrix" values="0 0 0 0 0 0 0 0 0 0 0 0 0 0 0 0 0 0 127 0" result="hardAlpha"/>
<feOffset dy="4"/>
<feGaussianBlur stdDeviation="2"/>
<feComposite in2="hardAlpha" operator="out"/>
<feColorMatrix type="matrix" values="0 0 0 0 0 0 0 0 0 0 0 0 0 0 0 0 0 0 0.25 0"/>
<feBlend mode="normal" in2="BackgroundImageFix" result="effect1_dropShadow_21_1001"/>
<feBlend mode="normal" in="SourceGraphic" in2="effect1_dropShadow_21_1001" result="shape"/>
<feTurbulence type="fractalNoise" baseFrequency="0.25 0.25" numOctaves="3" seed="3742" />
<feDisplacementMap in="shape" scale="8" xChannelSelector="R" yChannelSelector="G" result="displacedImage" width="100%" height="100%" />
<feMerge result="effect2_texture_21_1001">
<feMergeNode in="displacedImage"/>
</feMerge>
</filter>
<linearGradient id="paint0_linear_21_1001" x1="240.378" y1="89.2822" x2="20.4999" y2="467.499" gradientUnits="userSpaceOnUse">
<stop stop-color="#E58D3D"/>
<stop offset="1" stop-color="#A4662D"/>
</linearGradient>
<linearGradient id="paint1_linear_21_1001" x1="240.378" y1="89.2822" x2="16.4999" y2="360.498" gradientUnits="userSpaceOnUse">
<stop stop-color="#DB873A"/>
</linearGradient>
<linearGradient id="paint2_linear_21_1001" x1="272.5" y1="99.4985" x2="-21.5" y2="300.498" gradientUnits="userSpaceOnUse">
<stop stop-color="#FF9D42"/>
<stop offset="1" stop-color="#B06D2F"/>
</linearGradient>
<linearGradient id="paint3_linear_21_1001" x1="138.624" y1="214.445" x2="-3.5" y2="422.498" gradientUnits="userSpaceOnUse">
<stop stop-color="white"/>
<stop offset="1" stop-color="#999999"/>
</linearGradient>
<linearGradient id="paint4_linear_21_1001" x1="145.042" y1="214.851" x2="12.8382" y2="443.249" gradientUnits="userSpaceOnUse">
<stop stop-color="white"/>
<stop offset="1" stop-color="#999999"/>
</linearGradient>
</defs>
</svg>
